<?xml version="1.0" encoding="UTF-8" standalone="no"?>
<svg
   xmlns:dc="http://purl.org/dc/elements/1.1/"
   xmlns:cc="http://creativecommons.org/ns#"
   xmlns:rdf="http://www.w3.org/1999/02/22-rdf-syntax-ns#"
   xmlns:svg="http://www.w3.org/2000/svg"
   xmlns="http://www.w3.org/2000/svg"
   xmlns:sodipodi="http://sodipodi.sourceforge.net/DTD/sodipodi-0.dtd"
   xmlns:inkscape="http://www.inkscape.org/namespaces/inkscape"
   viewBox="0 0 10 10"
   id="svg2"
   version="1.1"
   inkscape:version="0.91 r13725"
   sodipodi:docname="accident.svg">
  <metadata
     id="metadata8">
    <rdf:RDF>
      <cc:Work
         rdf:about="">
        <dc:format>image/svg+xml</dc:format>
        <dc:type
           rdf:resource="http://purl.org/dc/dcmitype/StillImage" />
      </cc:Work>
    </rdf:RDF>
  </metadata>
  <defs
     id="defs6" />
  <sodipodi:namedview
     pagecolor="#ffffff"
     bordercolor="#666666"
     borderopacity="1"
     objecttolerance="10"
     gridtolerance="10"
     guidetolerance="10"
     inkscape:pageopacity="0"
     inkscape:pageshadow="2"
     inkscape:window-width="1855"
     inkscape:window-height="1056"
     id="namedview4"
     showgrid="false"
     inkscape:zoom="23.6"
     inkscape:cx="-2.1822034"
     inkscape:cy="5"
     inkscape:window-x="65"
     inkscape:window-y="24"
     inkscape:window-maximized="1"
     inkscape:current-layer="svg2" />
  <path
     style="fill:#000000"
     d="M 5 0 A 5 5 0 0 0 0 5 A 5 5 0 0 0 5 10 A 5 5 0 0 0 10 5 A 5 5 0 0 0 5 0 z M 5.0742188 1.4980469 C 5.1561115 1.495583 5.1769275 1.5466771 5.1738281 1.6738281 C 5.1651267 2.0474551 5.0459565 2.1241023 4.8613281 1.8730469 C 4.7146977 1.6737043 4.7286148 1.5973597 4.921875 1.5332031 C 4.9875037 1.5113526 5.0370266 1.4988217 5.0742188 1.4980469 z M 6.7988281 1.9570312 C 6.8803411 1.9529168 6.914705 2.0677958 6.828125 2.1914062 C 6.7732897 2.2697423 6.7037631 2.2936079 6.6582031 2.2480469 C 6.6109221 2.2007352 6.635017 2.0674594 6.703125 2.0058594 C 6.738241 1.9740914 6.7716321 1.9585812 6.7988281 1.9570312 z M 7.5703125 1.9902344 C 7.6349186 1.985841 7.6842942 2.0249469 7.6933594 2.1035156 C 7.7123428 2.268533 7.4323496 2.4889903 7.3320312 2.3886719 C 7.2758869 2.3325272 7.3144618 2.1679602 7.4042969 2.078125 C 7.460217 2.022212 7.5200255 1.9933344 7.5703125 1.9902344 z M 5.5292969 2.2714844 C 5.7612752 2.2714844 5.7998995 2.3463142 5.6660156 2.5429688 C 5.5766844 2.6741488 5.5160769 2.6920784 5.4667969 2.5996094 C 5.4348729 2.5397144 5.413665 2.4068911 5.421875 2.3144531 C 5.4240446 2.2899671 5.4721139 2.2714844 5.5292969 2.2714844 z M 3.7792969 2.5976562 C 3.7854949 2.597106 3.790675 2.5975865 3.796875 2.5976562 C 3.9905458 2.5999808 4.1925813 2.9206995 4.0683594 3.0449219 C 4.0103162 3.1029879 3.969746 3.0995114 3.8417969 3.0214844 C 3.7255863 2.95061 3.635872 2.7815152 3.65625 2.6738281 C 3.6644323 2.6306691 3.7063069 2.6046262 3.7792969 2.5976562 z M 4.5546875 2.7734375 C 4.6234781 2.7773116 4.683265 2.8827736 4.671875 2.9960938 C 4.6590901 3.1231678 4.6065247 3.1460888 4.5273438 3.0585938 C 4.4507119 2.9735632 4.4489146 2.8086639 4.5253906 2.7792969 C 4.5353866 2.7754217 4.5448475 2.7728873 4.5546875 2.7734375 z M 6.5996094 2.8222656 C 6.6816415 2.8277359 6.8894899 3.045931 6.875 3.1210938 C 6.863083 3.1829568 6.6101711 3.3351662 6.5175781 3.3359375 C 6.4827571 3.3362485 6.4437286 3.3106779 6.4316406 3.2792969 C 6.4004147 3.1979233 6.5186815 2.8500208 6.5859375 2.8242188 C 6.5901995 2.8228394 6.5941794 2.8219015 6.5996094 2.8222656 z M 3.0585938 3.3007812 C 3.1444071 3.3007813 3.2949219 3.3916004 3.2949219 3.4433594 C 3.2949219 3.5045754 3.1726469 3.5411305 3.0761719 3.5078125 C 2.9159894 3.45252 2.9031534 3.3007812 3.0585938 3.3007812 z M 5.4863281 3.6015625 C 5.4925271 3.6007925 5.4980831 3.6019656 5.5019531 3.6035156 C 5.5321796 3.6151072 5.6017014 3.7178898 5.65625 3.8320312 L 5.7558594 4.0390625 L 5.9824219 3.9335938 C 6.150678 3.8548717 6.2394127 3.8317723 6.3242188 3.8476562 C 6.4153088 3.8646875 6.4806529 3.8429326 6.6445312 3.7441406 C 6.7578513 3.6758238 6.8871656 3.6210938 6.9316406 3.6210938 C 7.0283327 3.6210938 7.1320429 3.7258203 7.2382812 3.9316406 C 7.3109609 4.0723819 7.3119895 4.0902607 7.2597656 4.1699219 C 7.2288883 4.2170553 7.1001714 4.3063784 6.9726562 4.3691406 C 6.8451411 4.4319173 6.7402344 4.497184 6.7402344 4.515625 C 6.7402344 4.5440383 7.2538551 5.4341854 7.40625 5.6699219 C 7.451346 5.739611 7.4478054 5.7513124 7.3808594 5.7871094 C 7.3170432 5.8212409 7.2950319 5.811723 7.2167969 5.71875 C 7.0902349 5.5683621 6.9880812 5.5796061 6.6523438 5.78125 C 6.3226117 5.9792677 6.267595 6.0712021 6.359375 6.2636719 L 6.4160156 6.3828125 L 5.6816406 6.8359375 C 5.2776321 7.085296 4.774411 7.3963877 4.5644531 7.5253906 C 4.2861311 7.6963896 4.1893489 7.7736806 4.2050781 7.8125 C 4.2169331 7.8418044 4.2343776 7.9319182 4.2441406 8.0117188 C 4.270764 8.2287741 4.1876291 8.3552918 3.921875 8.5039062 C 3.6645667 8.6478323 3.6036766 8.654326 3.4550781 8.5625 C 3.3816932 8.5171564 3.2261092 8.2916581 2.9570312 7.8339844 C 2.4189989 6.9188306 2.4972029 6.9901118 2.2441406 7.1660156 C 1.9688871 7.3573468 1.8693304 7.3804199 1.7714844 7.2753906 C 1.669198 7.1656038 1.5462899 6.905299 1.5605469 6.828125 C 1.5702479 6.7756684 1.7723256 6.6237418 2.0722656 6.4433594 C 2.1295266 6.4089102 2.1300874 6.3782713 2.0839844 5.9824219 C 2.0295134 5.5140631 2.0335637 5.3693029 2.1054688 5.1972656 C 2.2099713 4.9471632 2.4383804 4.7620492 3.2226562 4.296875 C 3.643409 4.0473228 4.025062 3.8242589 4.0703125 3.8007812 C 4.1559554 3.7563133 4.1495314 3.753123 4.3808594 3.921875 C 4.4498433 3.972193 4.4602999 3.9669342 4.5664062 3.8164062 C 4.6995002 3.6275626 4.7750934 3.6163972 4.9355469 3.7597656 L 5.0507812 3.8613281 L 5.2480469 3.7207031 C 5.350496 3.6484654 5.4431696 3.6038872 5.4863281 3.6015625 z M 5.390625 4.0097656 L 5.1601562 4.1914062 C 5.0330906 4.2912592 4.9296875 4.3773825 4.9296875 4.3828125 C 4.9296875 4.388337 4.9531329 4.4618599 4.9824219 4.5449219 C 5.0525219 4.7436299 5.0504544 4.7654361 4.9589844 4.7519531 C 4.8997633 4.7432361 4.8643199 4.690998 4.8105469 4.5292969 L 4.7402344 4.3183594 L 4.8378906 4.2421875 C 4.9262996 4.1716845 4.9282929 4.1611044 4.8730469 4.1152344 C 4.8198542 4.0710924 4.7982692 4.0834158 4.6816406 4.2148438 C 4.3371242 4.603061 4.2522125 4.7433395 4.1796875 5.046875 C 4.1032649 5.3669446 4.065087 5.4361808 4 5.3710938 C 3.9610732 5.3321735 3.985403 5.1419855 4.0625 4.8730469 C 4.083932 4.7985519 4.0735719 4.7929688 3.9179688 4.7929688 C 3.7235922 4.7929688 3.6087467 4.7428339 3.6367188 4.6699219 C 3.6507125 4.6335039 3.7279674 4.6151719 3.90625 4.6074219 C 4.1494407 4.5973568 4.1605187 4.593861 4.2675781 4.4609375 L 4.3789062 4.3242188 L 4.2421875 4.2070312 L 4.1074219 4.0878906 L 3.6210938 4.3769531 C 2.5166469 5.0305369 2.5366598 5.0154694 2.4511719 5.1835938 C 2.4071843 5.2700581 2.3709852 5.3976813 2.3710938 5.4667969 C 2.371303 5.5955828 2.5246584 6.4311673 2.5683594 6.5429688 C 2.6107042 6.65133 2.7458854 6.6100939 3.0332031 6.4042969 C 3.1866754 6.2943628 3.3877666 6.1421854 3.4785156 6.0664062 C 3.951167 5.6717268 4.7888363 5.1853815 5.5507812 4.8632812 C 6.0439504 4.6547954 6.2434038 4.5513528 6.2675781 4.4882812 C 6.2797201 4.4567065 6.2480472 4.3911513 6.1914062 4.3320312 L 6.09375 4.2324219 L 5.8945312 4.3203125 C 5.7829314 4.3698324 5.6258294 4.4800975 5.5410156 4.5683594 C 5.4160962 4.6983695 5.3780886 4.7205697 5.3359375 4.6855469 C 5.2681314 4.6292704 5.2643788 4.6363868 5.4140625 4.4707031 L 5.5449219 4.3261719 L 5.46875 4.1679688 L 5.390625 4.0097656 z M 6.4921875 4.9101562 C 6.4599621 4.9087612 6.4172497 4.9283201 6.3398438 4.9707031 C 6.1342413 5.0832868 6.108493 5.1083775 6.171875 5.1484375 C 6.243501 5.1937185 6.2495237 5.1930273 6.4355469 5.1132812 C 6.609909 5.0385558 6.6295107 5.0054218 6.5429688 4.9335938 C 6.5259228 4.9194887 6.5115585 4.910931 6.4921875 4.9101562 z M 6.671875 5.1894531 C 6.5554556 5.1918396 6.3546779 5.3167773 6.296875 5.4550781 C 6.2138665 5.6537467 6.2152247 5.6533888 6.5058594 5.4785156 C 6.7465956 5.3337994 6.7788401 5.3025449 6.7519531 5.2324219 C 6.7401521 5.2016619 6.710694 5.1886783 6.671875 5.1894531 z M 5.9628906 5.2246094 C 5.913177 5.2224464 5.8700117 5.2504038 5.8242188 5.3085938 C 5.7539878 5.3978783 5.6872946 5.7556296 5.7285156 5.8222656 C 5.7577115 5.8691416 5.8274884 5.8684914 5.9375 5.8183594 C 6.0018583 5.7890317 6.0466875 5.7173042 6.0996094 5.5605469 L 6.1738281 5.3457031 L 6.09375 5.2832031 C 6.0450517 5.2457011 6.0015556 5.2261594 5.9628906 5.2246094 z M 7.796875 5.9492188 C 7.8712827 5.9511559 7.9627893 5.968635 8.0742188 6.0019531 C 8.4080888 6.1017057 8.4700806 6.1353163 8.5175781 6.25 C 8.5524071 6.3340855 8.5348478 6.424463 8.3984375 6.8769531 C 8.3109428 7.167192 8.223658 7.4474654 8.203125 7.5 C 8.1293759 7.6886497 7.9329989 7.7156998 7.5703125 7.5878906 C 7.3168242 7.4985594 7.203125 7.4071339 7.203125 7.2949219 C 7.203125 7.1884126 7.542146 6.0816742 7.59375 6.0195312 C 7.6348707 5.9699412 7.701198 5.9468987 7.796875 5.9492188 z M 7.71875 6.2285156 C 7.710847 6.2285156 7.6997877 6.2345649 7.6835938 6.2480469 C 7.6089379 6.310003 7.4147225 6.8314047 7.390625 7.0351562 C 7.3669769 7.2348399 7.4180918 7.2676427 7.5019531 7.1054688 C 7.5737109 6.9667107 7.7363281 6.4062971 7.7363281 6.2949219 C 7.7363281 6.2485869 7.731844 6.2285389 7.71875 6.2285156 z M 3.5917969 6.6230469 C 3.5849759 6.6230469 3.5780888 6.62345 3.5742188 6.625 C 3.4244502 6.6696695 2.903677 7.009811 2.9042969 7.0625 C 2.9050795 7.1292367 3.1050146 7.4571474 3.1445312 7.4570312 C 3.1591525 7.4570002 3.3788205 7.3321291 3.6328125 7.1796875 C 4.1890612 6.8458406 4.2085878 6.802787 3.8632812 6.6855469 C 3.7521539 6.6478119 3.6396819 6.6225433 3.5917969 6.6230469 z "
     id="circle6" />
</svg>
