<svg viewBox="0 0 10 10"><path d="M5 0a5 5 0 0 0-5 5 5 5 0 0 0 5 5 5 5 0 0 0 5-5 5 5 0 0 0-5-5zm.074 1.498c.082-.002.103.049.1.176-.009.373-.128.45-.313.199-.146-.2-.132-.276.06-.34a.565.565 0 0 1 .153-.035zm1.725.459c.081-.004.116.11.03.234-.056.079-.125.103-.17.057-.048-.047-.024-.18.044-.242a.166.166 0 0 1 .096-.049zm.771.033c.065-.004.114.035.123.114.02.165-.26.385-.361.285-.056-.056-.018-.221.072-.31a.272.272 0 0 1 .166-.089zm-2.04.281c.231 0 .27.075.136.272-.09.131-.15.15-.2.057a.627.627 0 0 1-.044-.286c.002-.024.05-.043.107-.043zm-1.75.327h.017c.194.002.396.323.271.447-.058.058-.098.055-.226-.024-.116-.07-.206-.24-.186-.347.008-.043.05-.07.123-.076zm.775.175c.068.004.128.11.117.223-.013.127-.065.15-.145.063-.076-.085-.078-.25-.002-.28a.07.07 0 0 1 .03-.006zm2.045.05c.082.005.29.223.275.298-.012.062-.265.214-.357.215a.098.098 0 0 1-.086-.057c-.032-.081.087-.429.154-.455a.034.034 0 0 1 .014-.002zM3.059 3.3c.085 0 .236.09.236.142 0 .062-.122.098-.219.065-.16-.055-.173-.207-.017-.207zm2.427.3c.007 0 .012.001.016.003.03.011.1.114.154.228l.1.207.226-.105c.169-.08.257-.102.342-.086.091.017.157-.005.32-.104.114-.068.243-.123.288-.123.096 0 .2.105.306.31.073.141.074.16.022.239-.031.047-.16.136-.287.2-.128.062-.233.127-.233.146 0 .028.514.918.666 1.154.045.07.042.081-.025.117-.064.034-.086.025-.164-.068-.127-.15-.229-.14-.565.062-.33.198-.384.29-.293.483l.057.119-.734.453-1.118.69c-.278.17-.375.248-.359.287.012.029.03.119.04.199.026.217-.057.343-.323.492-.257.144-.318.15-.467.059-.073-.046-.229-.271-.498-.729-.538-.915-.46-.844-.713-.668-.275.191-.375.214-.473.11-.102-.11-.225-.37-.21-.448.01-.052.211-.204.511-.385.058-.034.058-.065.012-.46-.054-.469-.05-.614.021-.786.105-.25.333-.435 1.118-.9.42-.25.802-.473.847-.496.086-.045.08-.048.31.12.07.051.08.046.186-.105.134-.188.21-.2.37-.056l.115.101.197-.14a.627.627 0 0 1 .238-.12zm-.095.409l-.23.181c-.128.1-.231.186-.231.192 0 .005.023.079.052.162.07.199.068.22-.023.207-.06-.009-.095-.061-.148-.223l-.07-.21.097-.077c.088-.07.09-.08.035-.127-.053-.044-.075-.032-.191.1-.345.388-.43.528-.502.832-.077.32-.115.39-.18.324-.039-.039-.015-.229.063-.498.02-.074.01-.08-.145-.08-.194 0-.31-.05-.281-.123.014-.036.091-.055.27-.063.242-.01.254-.013.36-.146l.112-.137-.137-.117-.135-.12-.486.29c-1.104.654-1.084.638-1.17.807a.769.769 0 0 0-.08.283c0 .129.154.964.197 1.076.043.108.178.067.465-.139.154-.11.355-.262.446-.338.472-.394 1.31-.88 2.072-1.203.493-.208.692-.312.717-.375.012-.031-.02-.097-.077-.156l-.097-.1-.2.088c-.111.05-.268.16-.353.248-.125.13-.163.153-.205.118-.068-.057-.072-.05.078-.215l.13-.145-.075-.158-.078-.158zm1.101.9c-.032-.001-.075.018-.152.06-.206.113-.232.138-.168.178.072.046.078.045.264-.035.174-.074.194-.108.107-.18-.017-.014-.031-.022-.05-.023zm.18.28a.512.512 0 0 0-.375.265c-.083.199-.082.198.209.024.24-.145.273-.176.246-.247-.012-.03-.041-.043-.08-.043zm-.71.035c-.049-.003-.092.025-.138.084-.07.089-.137.447-.095.513.029.047.098.046.208-.004.065-.029.11-.1.163-.257l.074-.215-.08-.063a.24.24 0 0 0-.131-.058zm1.835.724c.074.002.166.02.277.053.334.1.396.133.444.248.034.084.017.174-.12.627-.087.29-.174.57-.195.623-.074.189-.27.216-.633.088-.253-.09-.367-.18-.367-.293 0-.107.34-1.213.39-1.275.042-.05.108-.073.204-.07zm-.078.28c-.008 0-.02.006-.035.019-.075.062-.27.583-.293.787-.024.2.027.233.111.07.072-.138.234-.699.234-.81 0-.046-.004-.066-.017-.066zm-4.127.394c-.007 0-.014 0-.018.002-.15.045-.67.385-.67.438.001.066.201.394.24.394a6.3 6.3 0 0 0 .489-.277c.556-.334.576-.377.23-.494a1.086 1.086 0 0 0-.271-.063z"/></svg>