<svg viewBox="0 0 10 10"><path d="M2.297 2.1c-.171 0-.274.008-.36.027-.134.03-.329.099-.326.117.001.007.136.122.3.254.369.3.558.463.661.572.077.081.081.088.074.149-.01.097-.124.25-.757 1.025a4.623 4.623 0 0 0-.213.272c0 .018.153.076.27.101.077.017.193.024.374.026l.262.002.197-.069.198-.066.06.045.518.39c.252.19.479.358.506.371.027.014.07.024.095.024.109 0 .467-.31.5-.434a.602.602 0 0 0-.029-.3c-.024-.045-.298-.268-.678-.551l-.355-.266-.002-.27c0-.148-.007-.333-.014-.412-.021-.238-.107-.413-.312-.63-.273-.289-.5-.377-.97-.377zm5.045.18c-.019-.011-.11.073-.43.396-.423.428-.536.528-.676.592-.112.051-.212.057-.482.029-.362-.038-.583-.027-.7.033-.086.045-.376.278-.57.46l-.088.081.051.055c.029.03.134.12.233.201.276.224.298.254.388.545.066.209.08.311.053.392-.03.093-.246.293-.898.832-.685.567-.66.545-.66.584 0 .05.054.14.12.2.097.087.18.117.337.125.116.005.15.002.248-.032a1.02 1.02 0 0 1 .13-.039c.01 0 .035.033.055.073a.388.388 0 0 0 .21.19c.069.026.149.025.468-.003.097-.008.114-.004.213.04.06.025.15.051.2.058.174.023.398-.013.452-.072.036-.04.085-.04.219.007.213.074.376.03.63-.17.159-.124.706-.674.975-.978.541-.612.535-.597.551-1.46.013-.686.03-.803.156-1.136a.357.357 0 0 0 .032-.119 41.964 41.964 0 0 0-1.217-.885zm-6.32.699c-.004.003 0 .11.01.236.035.522.12.8.316 1.033.034.04.067.07.074.066.018-.01.245-.29.371-.455.066-.086.102-.147.096-.158-.032-.052-.854-.736-.868-.722zm6.623 3.654l-.082.07c-.046.04-.206.192-.356.338-.206.2-.271.27-.262.287.039.07.586.51.7.563.077.036.157.027.236-.028.115-.08.347-.383.387-.506.042-.132-.033-.235-.373-.517l-.25-.207z"/></svg>