<?xml version="1.0" encoding="UTF-8" standalone="no"?>
<svg
   xmlns:dc="http://purl.org/dc/elements/1.1/"
   xmlns:cc="http://creativecommons.org/ns#"
   xmlns:rdf="http://www.w3.org/1999/02/22-rdf-syntax-ns#"
   xmlns:svg="http://www.w3.org/2000/svg"
   xmlns="http://www.w3.org/2000/svg"
   xmlns:sodipodi="http://sodipodi.sourceforge.net/DTD/sodipodi-0.dtd"
   xmlns:inkscape="http://www.inkscape.org/namespaces/inkscape"
   viewBox="0 0 10 10"
   id="svg2"
   version="1.1"
   inkscape:version="0.91 r13725"
   sodipodi:docname="service.svg">
  <metadata
     id="metadata8">
    <rdf:RDF>
      <cc:Work
         rdf:about="">
        <dc:format>image/svg+xml</dc:format>
        <dc:type
           rdf:resource="http://purl.org/dc/dcmitype/StillImage" />
        <dc:title />
      </cc:Work>
    </rdf:RDF>
  </metadata>
  <defs
     id="defs6" />
  <sodipodi:namedview
     pagecolor="#ffffff"
     bordercolor="#666666"
     borderopacity="1"
     objecttolerance="10"
     gridtolerance="10"
     guidetolerance="10"
     inkscape:pageopacity="0"
     inkscape:pageshadow="2"
     inkscape:window-width="1855"
     inkscape:window-height="1056"
     id="namedview4"
     showgrid="false"
     inkscape:zoom="66.75088"
     inkscape:cx="1.5105275"
     inkscape:cy="5.1059192"
     inkscape:window-x="65"
     inkscape:window-y="24"
     inkscape:window-maximized="1"
     inkscape:current-layer="svg2" />
  <path
     style="fill:#000000;fill-opacity:1;stroke:none;stroke-width:0.04494323;stroke-miterlimit:4;stroke-dasharray:none;stroke-opacity:1"
     d="M 2.296875 2.0996094 C 2.1256104 2.0996094 2.023132 2.1084071 1.9375 2.1269531 C 1.8026291 2.156163 1.6083065 2.2256334 1.6113281 2.2441406 C 1.6124209 2.2508346 1.7470057 2.3655321 1.9101562 2.4980469 C 2.2799075 2.7983679 2.4687146 2.9607983 2.5722656 3.0703125 C 2.6486116 3.1510506 2.6533344 3.157936 2.6464844 3.21875 C 2.6355259 3.3159734 2.5222177 3.468922 1.8886719 4.2441406 C 1.7717113 4.3872557 1.6757812 4.509885 1.6757812 4.515625 C 1.6757812 4.5335515 1.828578 4.5916641 1.9453125 4.6171875 C 2.0225136 4.6340671 2.1387579 4.6414494 2.3203125 4.6425781 L 2.5820312 4.6445312 L 2.7792969 4.5761719 L 2.9765625 4.5097656 L 3.0371094 4.5546875 C 3.0696889 4.5790608 3.30285 4.7548597 3.5546875 4.9453125 C 3.8065247 5.1357651 4.0335851 5.3031166 4.0605469 5.3164062 C 4.0875089 5.3296963 4.13041 5.3396565 4.15625 5.3398438 C 4.2645073 5.3406299 4.62338 5.0295585 4.65625 4.90625 C 4.674939 4.8361384 4.6588481 4.6650658 4.6269531 4.6054688 C 4.603239 4.5611581 4.3291037 4.3382244 3.9492188 4.0546875 L 3.59375 3.7890625 L 3.5917969 3.5195312 C 3.5914219 3.3712186 3.585185 3.1863789 3.578125 3.1074219 C 3.5568054 2.8690237 3.4708743 2.6935509 3.265625 2.4765625 C 2.9927002 2.1880285 2.766082 2.0996094 2.296875 2.0996094 z M 7.3417969 2.2792969 C 7.323194 2.2688517 7.2313777 2.3525684 6.9121094 2.6757812 C 6.4890997 3.104017 6.3757983 3.2037265 6.2363281 3.2675781 C 6.1236612 3.3191586 6.0240299 3.3252547 5.7539062 3.296875 C 5.3923401 3.2588882 5.1710912 3.2702428 5.0546875 3.3300781 C 4.9680758 3.3745994 4.6778664 3.6076162 4.484375 3.7890625 L 4.3964844 3.8710938 L 4.4472656 3.9257812 C 4.4757829 3.9556902 4.5806889 4.0467347 4.6796875 4.1269531 C 4.9564588 4.3512209 4.9777474 4.3814206 5.0683594 4.671875 C 5.1335362 4.8807978 5.1476136 4.9834955 5.1210938 5.0644531 C 5.0909357 5.1565171 4.8746918 5.3567515 4.2226562 5.8964844 C 3.5381767 6.4630751 3.5625 6.4414888 3.5625 6.4804688 C 3.5625 6.5305779 3.6171488 6.6196575 3.6835938 6.6796875 C 3.7797179 6.7665301 3.862915 6.7973875 4.0195312 6.8046875 C 4.1363479 6.8101355 4.1696391 6.8072415 4.2675781 6.7734375 C 4.3298622 6.7519405 4.3888975 6.734375 4.3984375 6.734375 C 4.4079795 6.734375 4.432916 6.7667606 4.453125 6.8066406 C 4.4979976 6.8951924 4.5713705 6.9614402 4.6621094 6.9960938 C 4.7316676 7.0226582 4.8116992 7.021806 5.1308594 6.9941406 C 5.2282078 6.9857023 5.244566 6.989671 5.34375 7.0332031 C 5.403314 7.0593459 5.4940359 7.0850872 5.5449219 7.0917969 C 5.7177126 7.114581 5.9419005 7.0794141 5.9960938 7.0195312 C 6.0323396 6.9794799 6.0807553 6.9808725 6.2148438 7.0273438 C 6.4282695 7.101311 6.5913378 7.0570579 6.8457031 6.8574219 C 7.0039657 6.7332112 7.5514546 6.1833184 7.8203125 5.8789062 C 8.3611611 5.2665352 8.3554282 5.2816713 8.3710938 4.4199219 C 8.3835729 3.7334484 8.4005442 3.6162809 8.5273438 3.2832031 C 8.5485697 3.2274405 8.5626837 3.1742165 8.5585938 3.1640625 C 8.5522345 3.1482855 7.4085479 2.3167759 7.3417969 2.2792969 z M 1.0214844 2.9785156 C 1.0176223 2.9823777 1.0225088 3.0881362 1.03125 3.2148438 C 1.0672854 3.7371928 1.1527809 4.0152897 1.3476562 4.2480469 C 1.3815642 4.2885459 1.414935 4.3187431 1.421875 4.3144531 C 1.439877 4.3033273 1.6665764 4.0248097 1.7929688 3.859375 C 1.8586338 3.7734253 1.8954919 3.7124759 1.8886719 3.7011719 C 1.85743 3.6493808 1.0354994 2.9645006 1.0214844 2.9785156 z M 7.6445312 6.6328125 L 7.5625 6.703125 C 7.5171732 6.7425125 7.3573978 6.8952314 7.2070312 7.0410156 C 7.0010887 7.2406824 6.9358754 7.3112619 6.9453125 7.328125 C 6.9840102 7.3972739 7.5313021 7.8376289 7.6445312 7.890625 C 7.7222923 7.927021 7.8017124 7.9181302 7.8808594 7.8632812 C 7.9956215 7.7837512 8.2282091 7.4796454 8.2675781 7.3574219 C 8.3101477 7.2252632 8.2345686 7.1217337 7.8945312 6.8398438 L 7.6445312 6.6328125 z "
     id="path4133" />
</svg>
